# xmcd
#
# Track frame offsets:
#	187
#	19502
#	39580
#	57212
#	76780
#	89442
#	107280
#	129677
#	143165
#	158505
#
# Disc length: 2252 seconds
#
# Revision: 9
# Processed by: cddbd v1.5.1PL2 Copyright (c) Steve Scherf et al.
# Submitted via: dBpowerAMP V4.0
#
DISCID=6e08ca0a
DTITLE=Wynonna Judd - Wynonna
DYEAR=1992
DGENRE=Country
TTITLE0=What It Takes
TTITLE1=She Is His Only Need
TTITLE2=I Saw The Light
TTITLE3=My Strongest Weakness
TTITLE4=When I Reach The Place I'm Goin'
TTITLE5=No One Else On Earth
TTITLE6=It's Never Easy To Say Goodbye
TTITLE7=A Little Bit Of Love (Goes A Long, Long Way)
TTITLE8=All Of That Love From Here
TTITLE9=Live With Jesus
EXTD=
EXTT0=
EXTT1=
EXTT2=
EXTT3=
EXTT4=
EXTT5=
EXTT6=
EXTT7=
EXTT8=
EXTT9=
PLAYORDER=
